<svg width="256" height="256" viewBox="0 0 256 256" fill="none" xmlns="http://www.w3.org/2000/svg">
<rect width="256" height="256" rx="35" fill="#283A4A"/>
<g clip-path="url(#clip0_1_5)">
<path d="M30 193.408C30 191.916 30 190.499 30 189.008C30.0758 188.933 30.1516 188.933 30.1516 188.858C30.9853 184.085 33.6381 180.431 37.2003 177.373C42.2784 172.898 48.2661 170.064 54.4053 167.603C56.4517 166.782 56.4517 166.782 56.2243 164.694C55.6179 159.399 55.0874 154.178 54.4811 148.883C53.4958 139.486 52.5105 130.088 51.4494 120.691C50.4641 111.219 49.4029 101.747 48.3418 92.2755C47.2808 82.7291 46.2197 73.2572 45.3101 63.7108C45.0828 61.175 44.7796 58.4901 45.1585 56.0289C45.7649 51.7778 48.645 48.7199 51.9799 46.1096C56.9064 42.3059 62.5909 39.9193 68.5027 38.0548C84.5708 32.9087 101.169 31.0441 117.92 30.2983C119.89 30.2237 121.937 30.0746 123.907 30C126.636 30 129.364 30 132.093 30C132.396 30.0746 132.699 30.2237 132.927 30.2237C139.369 30.5966 145.811 30.8204 152.254 31.3425C162.789 32.2374 173.097 33.9528 183.253 36.7869C190.15 38.726 196.82 41.1126 202.807 45.2146C206.749 47.8995 210.084 51.1811 210.917 56.1035C211.296 58.1918 211.069 60.5038 210.841 62.6667C210.159 69.5281 209.401 76.3896 208.643 83.2511C207.507 93.4688 206.445 103.761 205.309 113.979C204.399 122.481 203.49 130.983 202.58 139.486C201.671 147.988 200.761 156.565 199.776 165.067C199.624 166.484 200.003 167.081 201.367 167.603C207.961 170.064 214.328 173.196 219.558 177.97C228.198 185.875 228.198 196.54 219.558 204.521C216.223 207.578 212.509 209.89 208.492 211.904C198.108 216.976 186.967 219.884 175.598 221.973C157.408 225.329 139.066 226.373 120.572 225.925C105.717 225.553 91.0132 224.135 76.461 221.152C66.2289 219.064 56.2243 216.304 46.826 211.531C44.249 210.189 41.8237 208.697 39.4741 207.056C34.8507 203.551 31.2885 199.225 30 193.408ZM57.1338 74.1522C57.9675 82.0578 58.8012 89.7397 59.635 97.4216C60.6961 107.639 61.8329 117.857 62.9698 128.075C63.9551 137.397 64.9404 146.795 66.0015 156.117C67.1384 166.335 68.1995 176.627 69.3364 186.845C69.4122 187.665 69.7154 188.113 70.4733 188.486C75.2483 190.798 80.3264 192.364 85.4803 193.557C100.487 197.062 115.722 198.032 131.032 197.883C141.567 197.734 152.026 196.839 162.41 194.9C170.444 193.408 178.326 191.32 185.83 188.187C186.285 187.963 186.891 187.367 186.967 186.919C187.8 179.536 188.634 172.078 189.392 164.694C190.302 156.043 191.211 147.466 192.196 138.814C193.182 129.492 194.243 120.094 195.228 110.772C196.062 102.941 196.896 95.1842 197.805 87.3531C198.26 83.0274 198.715 78.7017 199.169 74.3014C198.866 74.3759 198.715 74.4505 198.487 74.5251C193.182 77.2846 187.573 79.1492 181.889 80.7154C172.642 83.1766 163.244 84.8174 153.618 85.6378C147.1 86.1598 140.582 86.6819 134.063 86.8311C122.012 87.1294 109.961 86.7565 97.9861 85.0411C90.9374 84.0715 83.8129 82.7291 76.8399 81.2375C70.0186 79.8204 63.4246 77.5084 57.1338 74.1522ZM130.274 40.3668C115.949 40.3668 103.822 41.1872 91.7711 43.1263C83.3581 44.4688 75.0967 46.3333 67.2142 49.5403C63.652 50.9574 60.2413 52.5982 57.437 55.2085C54.9358 57.5205 54.7842 59.2359 57.3612 61.3988C59.5592 63.2633 62.0603 64.8295 64.7131 66.0974C73.2777 70.1994 82.5244 72.2877 91.8469 73.6301C99.7293 74.7489 107.688 75.4201 115.57 76.0168C126.181 76.8371 136.868 76.6134 147.479 75.6438C155.058 74.9726 162.637 73.8539 170.217 72.586C177.72 71.3181 185.148 69.2298 192.045 65.9483C194.925 64.6058 197.654 63.1142 199.7 60.653C201.216 58.863 201.292 57.6697 199.624 56.1035C198.032 54.5373 196.213 53.1202 194.243 52.0015C188.255 48.5708 181.585 46.7062 174.916 45.14C159.53 41.6347 143.916 40.4414 130.274 40.3668ZM198.563 177.448C198.032 182.146 197.502 186.696 197.047 191.17C196.82 193.632 195.607 195.198 193.333 196.242C184.617 200.344 175.522 202.88 166.124 204.744C151.193 207.728 136.11 208.623 120.875 208.175C109.734 207.877 98.6682 206.907 87.6783 204.744C79.4169 203.103 71.4586 200.791 63.9552 196.988C60.7719 195.347 58.877 193.184 58.9528 189.53C58.9528 188.858 58.8012 188.187 58.7254 187.441C58.3465 184.16 57.9675 180.878 57.5885 177.448C56.1485 178.044 54.86 178.566 53.5715 179.163C49.4787 181.102 45.5375 183.265 42.5058 186.696C39.7773 189.828 39.7773 192.289 42.43 195.496C42.8848 196.093 43.4153 196.615 43.9459 197.062C46.7502 199.598 49.9335 201.388 53.3442 202.954C62.2877 207.131 71.8376 209.592 81.5391 211.382C99.2746 214.738 117.162 215.782 135.2 215.335C148.388 215.037 161.576 213.843 174.537 211.382C183.859 209.592 193.03 207.28 201.671 203.402C206.067 201.463 210.235 199.225 213.494 195.571C216.223 192.438 216.299 189.828 213.57 186.696C209.629 182.221 204.172 179.909 198.563 177.448Z" fill="white"/>
</g>
<defs>
<clipPath id="clip0_1_5">
<rect width="196" height="196" fill="white" transform="translate(30 30)"/>
</clipPath>
</defs>
</svg>
